# Blender v2.76 (sub 0) OBJ File: ''
# www.blender.org
mtllib Dark_Souls.mtl
o Cube.002_Cube.003
v -0.453337 -0.072509 1.951198
v -0.453337 0.072509 1.951198
v -0.453337 -0.072509 1.744412
v -0.453337 0.072509 1.744412
v 0.386344 -0.072509 1.951198
v 0.386344 0.072509 1.951198
v 0.386344 -0.072509 1.744412
v 0.386344 0.072509 1.744412
v -0.817999 -0.058810 1.808510
v -0.817999 0.059762 1.808510
v -0.726372 0.059762 1.682682
v -0.726372 -0.058810 1.682682
v 0.658723 0.064394 1.668808
v 0.654247 -0.054106 1.669856
v 0.740226 0.063599 1.798462
v 0.735750 -0.054901 1.799512
v -1.009471 -0.047729 1.584276
v -1.009471 0.045878 1.584276
v -0.917845 0.045878 1.518584
v -0.917845 -0.047729 1.518584
v 0.866109 0.042792 1.518416
v 0.861633 -0.050758 1.518963
v 0.947612 0.042164 1.586105
v 0.943136 -0.051386 1.586653
v 0.156903 -0.070332 3.565786
v 0.156903 0.070332 3.565786
v 0.420602 -0.070332 3.830370
v 0.420602 0.070332 3.830370
v 0.419975 -0.070332 4.203922
v 0.419975 0.070332 4.203922
v 0.155391 -0.070332 4.467620
v 0.155391 0.070332 4.467620
v -0.218161 -0.070332 4.466994
v -0.218161 0.070332 4.466994
v -0.481859 -0.070332 4.202409
v -0.481859 0.070332 4.202409
v -0.481232 -0.070332 3.828858
v -0.481232 0.070332 3.828858
v -0.216649 -0.070332 3.565160
v -0.216649 0.070332 3.565160
v 0.087992 -0.141884 3.743479
v 0.254643 -0.141884 3.903726
v 0.254643 0.141884 3.903726
v 0.087992 0.141884 3.743479
v 0.254247 -0.141884 4.129970
v 0.254247 0.141884 4.129970
v 0.087037 -0.141884 4.289680
v 0.087037 0.141884 4.289680
v -0.149039 -0.141884 4.289300
v -0.149039 0.141884 4.289300
v -0.315690 -0.141884 4.129053
v -0.315690 0.141884 4.129053
v -0.315294 -0.141884 3.902810
v -0.315294 0.141884 3.902810
v -0.148084 -0.141884 3.743100
v -0.148084 0.141884 3.743100
v -0.201253 0.038270 1.915138
v -0.189047 0.035602 3.620477
v -0.026216 0.048062 3.635263
v -0.026216 0.051665 1.914311
v 0.148822 -0.038272 1.915138
v -0.262516 -0.000001 1.914311
v -0.201253 -0.038272 1.915138
v 0.148822 0.038270 1.915138
v 0.164456 -0.016041 1.797552
v 0.068723 -0.016563 1.797552
v -0.010196 -0.011564 -2.145477
v 0.043489 -0.011200 -2.145477
v -0.314214 0.014475 1.797552
v -0.233927 0.016039 1.797552
v -0.179913 0.011202 -2.145477
v -0.224935 0.010109 -2.145477
v -0.314214 -0.014477 1.797552
v -0.374743 -0.011364 1.797552
v -0.258879 -0.007934 -2.145477
v -0.224935 -0.010107 -2.145477
v -0.411205 -0.006196 1.797552
v -0.279325 -0.004325 -2.145477
v -0.423418 -0.000001 1.797552
v -0.411205 0.006194 1.797552
v -0.279325 0.004327 -2.145477
v -0.286174 0.000001 -2.145477
v 0.305274 -0.011364 1.797552
v 0.244745 -0.014477 1.797552
v 0.088512 -0.010107 -2.145477
v 0.122455 -0.007934 -2.145477
v -0.374743 0.011362 1.797552
v -0.258879 0.007936 -2.145477
v -0.233927 -0.016041 1.797552
v -0.179913 -0.011200 -2.145477
v 0.164456 0.016039 1.797552
v 0.244745 0.014475 1.797552
v 0.088512 0.010109 -2.145477
v 0.043489 0.011202 -2.145477
v -0.138192 0.016561 1.797552
v -0.126228 0.011566 -2.145477
v 0.305274 0.011362 1.797552
v 0.341736 0.006194 1.797552
v 0.142902 0.004327 -2.145477
v 0.122455 0.007936 -2.145477
v -0.034735 0.001214 1.797554
v -0.068212 0.000850 -2.145477
v 0.353949 -0.000001 1.797552
v 0.149751 0.000001 -2.145477
v -0.034735 -0.001216 1.797554
v -0.068212 -0.000848 -2.145477
v 0.341736 -0.006196 1.797552
v 0.142902 -0.004325 -2.145477
v -0.138192 -0.016563 1.797552
v -0.126228 -0.011564 -2.145477
v 0.068723 0.016561 1.797552
v -0.010196 0.011566 -2.145477
v 0.087875 0.005394 -2.819565
v 0.060087 0.006871 -2.819565
v 0.023230 -0.007612 -2.819565
v 0.060087 -0.006869 -2.819565
v 0.104613 0.002941 -2.819565
v -0.241036 -0.002939 -2.819565
v -0.224298 -0.005392 -2.819565
v 0.023230 0.007614 -2.819565
v 0.110220 0.000001 -2.819565
v -0.246642 0.000001 -2.819565
v -0.196511 0.006871 -2.819565
v -0.224298 0.005394 -2.819565
v -0.196511 -0.006869 -2.819565
v -0.241036 0.002941 -2.819565
v -0.159654 0.007614 -2.819565
v 0.087875 -0.005392 -2.819565
v 0.104613 -0.002939 -2.819565
v -0.159654 -0.007612 -2.819565
v -0.079862 0.000001 -3.532450
v -0.068212 0.007861 -2.819565
v -0.068212 -0.007859 -2.819565
v -0.026216 -0.000001 3.654274
v -0.026216 -0.048064 3.635263
v 0.136616 -0.035604 3.620477
v 0.193607 -0.000001 3.635263
v -0.246038 -0.000001 3.635263
v -0.189047 -0.035604 3.620477
v 0.136616 0.035602 3.620477
v -0.026216 -0.051667 1.914311
v 0.210085 -0.000001 1.914311
vt 0.634937 0.128695
vt 0.605737 0.128653
vt 0.606032 0.073971
vt 0.635232 0.074014
vt 0.637261 0.243375
vt 0.636728 0.134737
vt 0.665927 0.134701
vt 0.666461 0.243339
vt 0.666732 0.281844
vt 0.637532 0.281880
vt 0.605284 0.241684
vt 0.634484 0.241727
vt 0.505270 0.137449
vt 0.546907 0.137434
vt 0.546998 0.252244
vt 0.505362 0.252259
vt 0.406225 0.138197
vt 0.447861 0.138190
vt 0.447903 0.253000
vt 0.406266 0.253007
vt 0.604189 0.300531
vt 0.633372 0.299887
vt 0.635458 0.334269
vt 0.606274 0.334913
vt 0.428887 0.311279
vt 0.465457 0.297762
vt 0.505270 0.325990
vt 0.468700 0.339507
vt 0.568298 0.296240
vt 0.530621 0.308273
vt 0.431724 0.081509
vt 0.469415 0.093522
vt 0.635458 0.087733
vt 0.664641 0.088389
vt 0.527823 0.079165
vt 0.564409 0.092662
vt 0.695931 0.117261
vt 0.695931 0.138081
vt 0.666732 0.138162
vt 0.666732 0.117342
vt 0.695928 0.089465
vt 0.666732 0.117204
vt 0.666732 0.089408
vt 0.637548 0.050916
vt 0.666732 0.051571
vt 0.666732 0.050916
vt 0.695927 0.050980
vt 0.695927 0.089408
vt 0.666732 0.089343
vt 0.606258 0.050916
vt 0.635458 0.050958
vt 0.604189 0.326815
vt 0.566512 0.338848
vt 0.467579 0.050916
vt 0.505270 0.062928
vt 0.567603 0.050916
vt 0.604189 0.064413
vt 0.343489 0.257197
vt 0.319158 0.257197
vt 0.319158 0.214073
vt 0.343489 0.214073
vt 0.319158 0.153088
vt 0.343489 0.153088
vt 0.319158 0.109964
vt 0.343489 0.109964
vt 0.319158 0.048978
vt 0.343489 0.048978
vt 0.367820 0.257197
vt 0.367820 0.214073
vt 0.367820 0.153088
vt 0.163167 0.239335
vt 0.208855 0.196211
vt 0.221599 0.223289
vt 0.193925 0.250544
vt 0.343489 0.092102
vt 0.367820 0.092101
vt 0.367821 0.048978
vt 0.273469 0.196211
vt 0.220133 0.168565
vt 0.260114 0.167763
vt 0.260733 0.223286
vt 0.288402 0.250537
vt 0.288399 0.289079
vt 0.260726 0.316334
vt 0.221592 0.316337
vt 0.193922 0.289085
vt 0.192464 0.142446
vt 0.193314 0.104704
vt 0.222186 0.077449
vt 0.262167 0.076646
vt 0.289837 0.102766
vt 0.288987 0.140508
vt 0.319158 0.239335
vt 0.319158 0.300320
vt 0.273469 0.048978
vt 0.319158 0.092102
vt 0.273469 0.343444
vt 0.208856 0.343444
vt 0.163167 0.092102
vt 0.208855 0.048978
vt 0.163167 0.300320
vt 0.163167 0.153087
vt 0.766685 0.939174
vt 0.762148 0.075581
vt 0.858440 0.068166
vt 0.858440 0.931203
vt 0.089957 0.042063
vt 0.080785 0.042063
vt 0.075848 0.900662
vt 0.083444 0.900662
vt 0.044096 0.042063
vt 0.051788 0.042063
vt 0.051831 0.900662
vt 0.045460 0.900662
vt 0.038297 0.042063
vt 0.040657 0.900662
vt 0.034804 0.042063
vt 0.037763 0.900662
vt 0.033634 0.042063
vt 0.036794 0.900662
vt 0.103448 0.042063
vt 0.097649 0.042063
vt 0.089816 0.900662
vt 0.094619 0.900662
vt 0.060961 0.042063
vt 0.059428 0.900662
vt 0.106941 0.042063
vt 0.097512 0.900662
vt 0.070873 0.042063
vt 0.067638 0.900662
vt 0.108112 0.042063
vt 0.098482 0.900662
vt 0.088104 0.959077
vt 0.084840 0.959077
vt 0.080509 0.959077
vt 0.090071 0.959077
vt 0.049461 0.959077
vt 0.051428 0.959077
vt 0.090730 0.959077
vt 0.048803 0.959077
vt 0.054692 0.959077
vt 0.058415 0.969980
vt 0.067509 0.988874
vt 0.067030 0.921522
vt 0.864240 0.262435
vt 0.844358 0.525190
vt 0.797290 0.454356
vt 0.792510 0.258709
vt 0.942115 0.266481
vt 0.908108 0.460113
vt 0.890267 0.000000
vt 0.942115 0.071083
vt 0.831297 0.065326
vt 0.950195 0.939174
vt 0.954732 0.075581
vt 0.982309 0.931203
vt 0.988434 0.068166
vt 0.728446 0.068166
vt 0.734571 0.931203
vn -0.147400 -0.672100 0.725600
vn -0.146700 0.671800 0.726000
vn -0.456300 0.656600 0.600600
vn -0.455500 -0.654900 0.603100
vn 0.059300 0.736500 -0.673900
vn -0.079400 0.741800 -0.665900
vn -0.066700 -0.743700 -0.665100
vn 0.058000 -0.736700 -0.673700
vn 0.258000 -0.763800 -0.591600
vn 0.255200 0.764500 -0.591900
vn 0.157400 0.666200 0.729000
vn 0.163500 -0.670500 0.723700
vn 0.450400 0.664000 0.596800
vn 0.436000 -0.665000 0.606400
vn 0.808500 -0.586900 -0.042500
vn 0.847100 0.529000 -0.050700
vn 0.024200 0.574600 -0.818100
vn -0.824500 0.556200 -0.104300
vn -0.263700 -0.740400 -0.618300
vn -0.249000 0.756200 -0.605000
vn 0.026300 -0.577900 -0.815700
vn -0.822300 -0.559600 -0.103200
vn 0.059600 0.563400 -0.824000
vn 0.013300 -0.589500 -0.807700
vn 0.329200 -0.511300 -0.793800
vn 0.329200 0.511300 -0.793800
vn 0.796100 0.507700 -0.329400
vn 0.796100 -0.507700 -0.329400
vn 0.794900 0.507700 0.332100
vn 0.794900 -0.507700 0.332100
vn 0.326500 0.511300 0.794900
vn 0.326500 -0.511300 0.794900
vn -0.329200 0.511400 0.793800
vn -0.329200 -0.511400 0.793800
vn -0.796000 0.507800 0.329400
vn -0.796000 -0.507800 0.329400
vn -0.794900 0.507800 -0.332000
vn -0.794900 -0.507800 -0.332000
vn 0.213100 0.973100 0.087400
vn 0.085400 0.975100 0.204600
vn -0.326500 -0.511400 -0.794900
vn -0.326500 0.511400 -0.794900
vn 0.213400 -0.973100 -0.086700
vn 0.086100 -0.975100 -0.204300
vn 0.213400 0.973100 -0.086700
vn 0.086100 0.975100 -0.204300
vn -0.085300 0.975100 -0.204500
vn -0.212900 0.973200 -0.087300
vn -0.213200 0.973200 0.086600
vn -0.086000 0.975100 0.204200
vn 0.213100 -0.973100 0.087400
vn 0.085400 -0.975100 0.204600
vn -0.086000 -0.975100 0.204200
vn -0.213200 -0.973200 0.086600
vn -0.212900 -0.973200 -0.087300
vn -0.085300 -0.975100 -0.204500
vn -0.313300 0.949700 0.003700
vn -0.260200 0.848000 0.461700
vn -0.000000 0.839000 0.544200
vn -0.000000 1.000000 0.002100
vn 0.013700 -0.999900 -0.001700
vn -0.075900 -0.997100 0.000100
vn -0.081000 -0.996700 0.001000
vn 0.013500 -0.999900 -0.003700
vn -0.038800 0.999200 -0.002000
vn -0.013600 0.999900 -0.001400
vn -0.013500 0.999900 -0.003600
vn -0.039800 0.999200 -0.004200
vn -0.038800 -0.999200 -0.002000
vn -0.105200 -0.994400 -0.004000
vn -0.107600 -0.994200 -0.006700
vn -0.039800 -0.999200 -0.004200
vn -0.326100 -0.945300 -0.011400
vn -0.331600 -0.943300 -0.016300
vn -0.999400 -0.000000 -0.034500
vn -0.326100 0.945300 -0.011400
vn -0.331600 0.943300 -0.016300
vn -0.998900 0.000000 -0.046900
vn 0.105700 -0.994400 -0.005800
vn 0.039000 -0.999200 -0.002700
vn 0.039700 -0.999200 -0.004600
vn 0.107300 -0.994200 -0.007500
vn -0.105200 0.994400 -0.004000
vn -0.107600 0.994200 -0.006700
vn -0.013600 -0.999900 -0.001400
vn -0.013500 -0.999900 -0.003600
vn 0.013700 0.999900 -0.001700
vn 0.039000 0.999200 -0.002700
vn 0.039700 0.999200 -0.004600
vn 0.013500 0.999900 -0.003700
vn 0.076800 0.997000 -0.001200
vn 0.080600 0.996700 0.000300
vn 0.105700 0.994400 -0.005800
vn 0.327800 0.944600 -0.017000
vn 0.330700 0.943500 -0.018900
vn 0.107300 0.994200 -0.007500
vn -0.000900 1.000000 0.000300
vn 0.000400 1.000000 0.005300
vn 0.998700 -0.000000 -0.051500
vn 0.998500 0.000000 -0.055400
vn -0.000900 -1.000000 0.000300
vn 0.000400 -1.000000 0.005300
vn 0.327800 -0.944600 -0.017000
vn 0.330700 -0.943500 -0.018900
vn 0.076800 -0.997000 -0.001200
vn 0.080600 -0.996700 0.000300
vn -0.075900 0.997100 0.000100
vn -0.081000 0.996700 0.001000
vn 0.107100 0.994000 -0.020800
vn 0.039400 0.999200 -0.011800
vn 0.012700 -0.999900 -0.009100
vn 0.039400 -0.999200 -0.011800
vn 0.332100 0.941600 -0.055100
vn -0.330800 -0.942400 -0.049500
vn -0.106700 -0.994100 -0.019000
vn 0.012700 0.999900 -0.009100
vn 0.989100 -0.000000 -0.147100
vn -0.990900 -0.000000 -0.134300
vn -0.039300 0.999200 -0.011200
vn -0.106700 0.994100 -0.019000
vn -0.039300 -0.999200 -0.011200
vn -0.330800 0.942400 -0.049500
vn -0.012600 0.999900 -0.008900
vn 0.107100 -0.994000 -0.020800
vn 0.332100 -0.941600 -0.055100
vn -0.012600 -0.999900 -0.008900
vn -0.015300 -0.000000 -0.999900
vn 0.000000 1.000000 -0.007900
vn 0.000000 -1.000000 -0.007900
vn -0.000000 -0.000000 1.000000
vn -0.000000 -0.839000 0.544200
vn 0.260200 -0.848000 0.461700
vn 0.804700 -0.000000 0.593700
vn -0.804700 0.000000 0.593700
vn -0.260200 -0.848000 0.461700
vn 0.260200 0.848000 0.461700
vn 0.313300 -0.949700 0.003700
vn -0.000000 -1.000000 0.002100
vn 1.000000 0.000000 0.009600
vn -0.313300 -0.949700 0.003700
vn -1.000000 0.000000 0.009600
vn 0.313300 0.949700 0.003700
usemtl None
s 1
f 1/1/1 2/2/2 10/3/3 9/4/4
f 4/5/5 8/6/6 7/7/7 3/8/8
f 4/5/5 3/8/8 12/9/9 11/10/10
f 6/11/11 2/2/2 1/1/1 5/12/12
f 1/13/1 3/14/8 7/15/7 5/16/12
f 6/17/11 8/18/6 4/19/5 2/20/2
f 15/21/13 16/22/14 24/23/15 23/24/16
f 10/25/3 11/26/10 19/27/17 18/28/18
f 5/16/12 7/15/7 14/29/19 16/30/14
f 8/18/6 6/17/11 15/31/13 13/32/20
f 7/7/7 8/6/6 13/33/20 14/34/19
f 3/14/8 1/13/1 9/35/4 12/36/9
f 2/20/2 4/19/5 11/26/10 10/25/3
f 6/11/11 5/12/12 16/22/14 15/21/13
f 18/37/18 19/38/17 20/39/21 17/40/22
f 21/41/23 23/37/16 24/42/15 22/43/24
f 14/34/19 13/33/20 21/44/23 22/45/24
f 11/46/10 12/47/9 20/48/21 19/49/17
f 9/4/4 10/3/3 18/50/18 17/51/22
f 16/30/14 14/29/19 22/52/24 24/53/15
f 13/32/20 15/31/13 23/54/16 21/55/23
f 12/36/9 9/35/4 17/56/22 20/57/21
f 25/58/25 26/59/26 28/60/27 27/61/28
f 27/61/28 28/60/27 30/62/29 29/63/30
f 29/63/30 30/62/29 32/64/31 31/65/32
f 31/65/32 32/64/31 34/66/33 33/67/34
f 33/68/34 34/58/33 36/61/35 35/69/36
f 35/69/36 36/61/35 38/63/37 37/70/38
f 32/71/31 30/72/29 46/73/39 48/74/40
f 39/75/41 40/76/42 26/70/26 25/63/25
f 37/67/38 38/77/37 40/76/42 39/75/41
f 25/78/25 27/72/28 42/79/43 41/80/44
f 43/81/45 44/82/46 56/83/47 54/84/48 52/85/49 50/86/50 48/74/40 46/73/39
f 41/80/44 42/79/43 45/87/51 47/88/52 49/89/53 51/90/54 53/91/55 55/92/56
f 26/93/26 40/94/42 56/83/47 44/82/46
f 28/78/27 26/93/26 44/82/46 43/81/45
f 35/95/36 37/96/38 53/91/55 51/90/54
f 38/97/37 36/98/35 52/85/49 54/84/48
f 31/99/32 33/100/34 49/89/53 47/88/52
f 34/101/33 32/71/31 48/74/40 50/86/50
f 27/72/28 29/102/30 45/87/51 42/79/43
f 37/96/38 39/62/41 55/92/56 53/91/55
f 30/72/29 28/78/27 43/81/45 46/73/39
f 40/94/42 38/97/37 54/84/48 56/83/47
f 33/100/34 35/95/36 51/90/54 49/89/53
f 36/98/35 34/101/33 50/86/50 52/85/49
f 29/102/30 31/99/32 47/88/52 45/87/51
f 39/62/41 25/78/25 41/80/44 55/92/56
f 57/103/57 58/104/58 59/105/59 60/106/60
f 65/107/61 66/108/62 67/109/63 68/110/64
f 69/111/65 70/112/66 71/113/67 72/114/68
f 73/111/69 74/115/70 75/116/71 76/114/72
f 74/115/70 77/117/73 78/118/74 75/116/71
f 79/119/75 80/117/76 81/118/77 82/120/78
f 83/121/79 84/122/80 85/123/81 86/124/82
f 87/115/83 69/111/65 72/114/68 88/116/84
f 89/112/85 73/111/69 76/114/72 90/113/86
f 77/117/73 79/119/75 82/120/78 78/118/74
f 91/107/87 92/122/88 93/123/89 94/110/90
f 70/112/66 95/125/91 96/126/92 71/113/67
f 80/117/76 87/115/83 88/116/84 81/118/77
f 97/121/93 98/127/94 99/128/95 100/124/96
f 95/125/91 101/129/97 102/130/98 96/126/92
f 98/127/94 103/131/99 104/132/100 99/128/95
f 66/108/62 105/129/101 106/130/102 67/109/63
f 84/122/80 65/107/61 68/110/64 85/123/81
f 107/127/103 83/121/79 86/124/82 108/128/104
f 105/129/101 109/125/105 110/126/106 106/130/102
f 103/131/99 107/127/103 108/128/104 104/132/100
f 92/122/88 97/121/93 100/124/96 93/123/89
f 101/129/97 111/108/107 112/109/108 102/130/98
f 109/125/105 89/112/85 90/113/86 110/126/106
f 111/108/107 91/107/87 94/110/90 112/109/108
f 93/123/89 100/124/96 113/133/109 114/134/110
f 85/123/81 68/110/64 115/135/111 116/134/112
f 100/124/96 99/128/95 117/136/113 113/133/109
f 75/116/71 78/118/74 118/137/114 119/138/115
f 94/110/90 93/123/89 114/134/110 120/135/116
f 99/128/95 104/132/100 121/139/117 117/136/113
f 78/118/74 82/120/78 122/140/118 118/137/114
f 88/116/84 72/114/68 123/141/119 124/138/120
f 76/114/72 75/116/71 119/138/115 125/141/121
f 81/118/77 88/116/84 124/138/120 126/137/122
f 72/114/68 71/113/67 127/142/123 123/141/119
f 108/128/104 86/124/82 128/133/124 129/136/125
f 90/113/86 76/114/72 125/141/121 130/142/126
f 82/120/78 81/118/77 126/137/122 122/140/118
f 104/132/100 108/128/104 129/136/125 121/139/117
f 86/124/82 85/123/81 116/134/112 128/133/124
f 121/139/117 129/136/125 131/143/127
f 130/142/126 125/141/121 131/143/127
f 113/133/109 117/136/113 131/143/127
f 117/136/113 121/139/117 131/143/127
f 128/133/124 116/134/112 131/143/127
f 119/138/115 118/137/114 131/143/127
f 116/134/112 115/135/111 131/143/127
f 114/134/110 113/133/109 131/143/127
f 118/137/114 122/140/118 131/143/127
f 120/135/116 114/134/110 131/143/127
f 126/137/122 124/138/120 131/143/127
f 124/138/120 123/141/119 131/143/127
f 122/140/118 126/137/122 131/143/127
f 129/136/125 128/133/124 131/143/127
f 123/141/119 127/142/123 131/143/127
f 125/141/121 119/138/115 131/143/127
f 96/126/92 102/130/98 132/144/128
f 102/130/98 112/109/108 132/144/128
f 71/113/67 96/126/92 132/144/128 127/142/123
f 112/109/108 94/110/90 120/135/116 132/144/128
f 127/142/123 132/144/128 131/143/127
f 132/144/128 120/135/116 131/143/127
f 106/130/102 110/126/106 133/144/129
f 67/109/63 106/130/102 133/144/129
f 110/126/106 90/113/86 130/142/126 133/144/129
f 68/110/64 67/109/63 133/144/129 115/135/111
f 115/135/111 133/144/129 131/143/127
f 133/144/129 130/142/126 131/143/127
f 134/145/130 135/146/131 136/147/132 137/148/133
f 134/145/130 138/149/134 139/150/135 135/146/131
f 134/145/130 59/151/59 58/152/58 138/149/134
f 134/145/130 137/148/133 140/153/136 59/151/59
f 61/154/137 136/155/132 135/105/131 141/106/138
f 142/156/139 137/157/133 136/155/132 61/154/137
f 63/103/140 139/104/135 138/158/134 62/159/141
f 60/106/60 59/105/59 140/155/136 64/154/142
f 62/159/141 138/158/134 58/104/58 57/103/57
f 64/154/142 140/155/136 137/157/133 142/156/139
f 141/106/138 135/105/131 139/104/135 63/103/140
